<svg width="24" height="26" viewBox="0 0 24 26" fill="none" xmlns="http://www.w3.org/2000/svg">
<path d="M17.4249 13.0001L1.41149 0.57749C0.798309 1.05702 0.385254 1.80193 0.385254 2.69004L0.385254 23.3102C0.385254 24.1983 0.798309 24.9432 1.41149 25.4221L17.4249 13.0001Z" fill="#9DC6FB"/>
<path d="M22.2718 10.6738L18.3971 8.43655L15.001 8.86124L13.8345 12.9999L14.4269 16.9622L18.3971 17.5625L22.2718 15.3259C24.0627 14.292 24.0627 11.7077 22.2718 10.6738Z" fill="#FFE07D"/>
<path d="M18.3969 8.43669L4.41416 0.363845C3.39244 -0.225675 2.22554 -0.0587559 1.41162 0.577381L13.8342 13L18.3969 8.43669Z" fill="#DD5790"/>
<path d="M18.3969 17.5627L13.8342 13L1.41162 25.422C2.22554 26.0589 3.39244 26.2258 4.41416 25.6362L18.3969 17.5627Z" fill="#95D6A4"/>
</svg>
