<svg width="22" height="26" viewBox="0 0 22 26" fill="none" xmlns="http://www.w3.org/2000/svg">
<path d="M14.8717 4.11975C15.6998 3.1188 16.2818 1.75934 16.2526 0.374632C16.2477 0.142105 16.0356 -0.0305513 15.8056 0.00453855C14.5906 0.190195 13.2324 0.951152 12.3916 1.93544C11.6168 2.83138 10.9291 4.2237 10.9808 5.60337C10.9885 5.81127 11.1642 5.97697 11.3721 5.97108C12.7132 5.93315 14.0372 5.13009 14.8717 4.11975Z" fill="#D6D6D8"/>
<path d="M21.3442 18.9264C20.5023 18.5025 18.1789 17.0398 18.1501 13.7958C18.1256 11.1403 19.8877 9.59615 20.6373 9.057C20.8152 8.92898 20.8543 8.67848 20.719 8.50598C20.0962 7.71201 19.3679 7.20273 18.6684 6.8726C18.6688 6.87255 18.6693 6.87244 18.6697 6.87239C18.5791 6.82958 18.424 6.76164 18.2998 6.71274C14.7796 5.32707 12.5612 7.451 11.2174 7.451C10.1885 7.451 8.60082 6.28846 6.91864 6.3202C4.70819 6.35229 2.67216 7.60608 1.53228 9.58452C-0.216528 12.6199 0.360194 16.7694 1.72271 20.0032C1.72271 20.0033 1.72266 20.0033 1.72266 20.0033C1.75754 20.086 1.8131 20.2148 1.85941 20.3187C1.85946 20.3186 1.85946 20.3186 1.85951 20.3185C2.25423 21.2049 2.70614 22.015 3.18221 22.7035C4.27538 24.2836 5.57949 26.0636 7.293 25.9982C8.94223 25.9328 9.56572 24.9319 11.5588 24.9319C13.5506 24.9319 14.1124 25.9982 15.8562 25.9664C17.6314 25.9328 18.7555 24.354 19.8412 22.7664C20.7968 21.3715 21.3239 20.0099 21.5352 19.3969C21.5981 19.2142 21.5169 19.0133 21.3442 18.9264Z" fill="#D6D6D8"/>
</svg>
